<svg width="47" height="47" viewBox="0 0 47 47" fill="none" xmlns="http://www.w3.org/2000/svg">
<rect width="47" height="47" rx="23.5" fill="#E2E2E2"/>
<path d="M30.1117 14.9976L31.9642 18.7228C32.0934 18.9821 32.2842 19.2063 32.5202 19.376C32.7562 19.5458 33.0303 19.656 33.3188 19.6972L37.4614 20.2947C37.7934 20.343 38.1051 20.4824 38.3615 20.6972C38.6178 20.912 38.8086 21.1936 38.9121 21.5103C39.0157 21.827 39.028 22.1662 38.9476 22.4894C38.8672 22.8127 38.6973 23.1072 38.4571 23.3397L35.4607 26.2399C35.2516 26.4414 35.0953 26.6906 35.0053 26.9658C34.9153 27.2409 34.8944 27.5337 34.9444 27.8187L35.639 31.9139C35.696 32.2422 35.6592 32.5798 35.5328 32.8884C35.4064 33.197 35.1954 33.4642 34.9237 33.6599C34.6521 33.8556 34.3306 33.9718 33.9958 33.9955C33.661 34.0192 33.3262 33.9493 33.0293 33.7937L29.3244 31.861C29.0666 31.7264 28.7797 31.656 28.4884 31.656C28.1971 31.656 27.9102 31.7264 27.6525 31.861L23.9475 33.7937C23.6507 33.9493 23.3159 34.0192 22.981 33.9955C22.6462 33.9718 22.3248 33.8556 22.0531 33.6599C21.7815 33.4642 21.5705 33.197 21.4441 32.8884C21.3176 32.5798 21.2808 32.2422 21.3378 31.9139L22.0441 27.8187C22.094 27.5337 22.0731 27.2409 21.9831 26.9658C21.8931 26.6906 21.7368 26.4414 21.5277 26.2399L18.5429 23.3397C18.3027 23.1072 18.1328 22.8127 18.0524 22.4894C17.972 22.1662 17.9843 21.827 18.0879 21.5103C18.1914 21.1936 18.3822 20.912 18.6385 20.6972C18.8949 20.4824 19.2066 20.343 19.5386 20.2947L23.6812 19.6972C23.9697 19.656 24.2438 19.5458 24.4798 19.376C24.7158 19.2063 24.9066 18.9821 25.0358 18.7228L26.8883 14.9976C27.036 14.6983 27.2654 14.4462 27.5503 14.2698C27.8352 14.0935 28.1642 14 28.5 14C28.8358 14 29.1648 14.0935 29.4497 14.2698C29.7346 14.4462 29.964 14.6983 30.1117 14.9976V14.9976Z" fill="#FFCF48" stroke="black" stroke-width="2"/>
<path d="M16.0041 21.4659C17.6428 21.4659 19.0873 21.9559 20.3375 22.9357C21.5876 23.8987 22.2127 25.2333 22.2127 26.9397C22.2127 28.7473 21.5454 30.234 20.2108 31.3997C18.893 32.5485 17.1782 33.1229 15.0665 33.1229C13.0392 33.1229 11.4511 32.7766 10.3023 32.0839C9.1535 31.3913 8.5791 30.4705 8.5791 29.3217C8.5791 28.5953 8.79028 28.0631 9.21263 27.7252C9.65188 27.3705 10.1756 27.1931 10.7838 27.1931C11.223 27.1931 11.5947 27.3367 11.8988 27.6239C12.2198 27.9111 12.4732 28.2574 12.6591 28.6629C12.8449 29.0683 13.0307 29.4738 13.2166 29.8792C13.4193 30.2847 13.6727 30.631 13.9768 30.9182C14.2978 31.2054 14.6695 31.349 15.0918 31.349C15.8014 31.349 16.3758 31.0365 16.815 30.4114C17.2712 29.7863 17.4992 28.8318 17.4992 27.5478C17.4992 24.6758 16.5194 23.2398 14.5596 23.2398C13.6811 23.2398 12.7858 23.603 11.8735 24.3295C11.4173 24.7012 10.8936 24.7772 10.3023 24.5576C9.72791 24.3379 9.47449 23.9663 9.54207 23.4426L10.4797 15.4347C10.5304 15.063 10.7585 14.8772 11.1639 14.8772H20.9203C21.3427 14.8772 21.5538 15.0884 21.5538 15.5107V17.8675C21.5538 18.2898 21.3427 18.501 20.9203 18.501H12.3043L11.6961 22.9611C12.9463 21.9643 14.3823 21.4659 16.0041 21.4659Z" fill="#FFCF48"/>
<path fill-rule="evenodd" clip-rule="evenodd" d="M15.6494 21.474C15.7667 21.4686 15.885 21.4659 16.0043 21.4659C17.643 21.4659 19.0875 21.9558 20.3376 22.9357C21.5878 23.8986 22.2129 25.2333 22.2129 26.9396C22.2129 28.7473 21.5456 30.234 20.2109 31.3997C19.1485 32.3259 17.8279 32.8788 16.2492 33.0582C15.8778 33.1004 15.492 33.122 15.092 33.1228C15.0836 33.1229 15.0751 33.1229 15.0667 33.1229C14.7449 33.1229 14.4341 33.1141 14.1344 33.0967C12.5463 33.0042 11.2689 32.6666 10.3025 32.0839C9.15368 31.3912 8.57928 30.4705 8.57928 29.3217C8.57928 28.5952 8.79046 28.0631 9.21281 27.7252C9.65206 27.3704 10.1758 27.193 10.784 27.193C11.2232 27.193 11.5949 27.3366 11.899 27.6238C12.22 27.911 12.4734 28.2573 12.6592 28.6628L13.2167 29.8792C13.4195 30.2846 13.6729 30.631 13.977 30.9182C14.1323 31.0572 14.2996 31.1625 14.4787 31.2343C14.6622 31.3078 14.8582 31.3459 15.0667 31.3488C15.0751 31.3489 15.0835 31.349 15.092 31.349C15.3625 31.349 15.6133 31.3036 15.8445 31.2127C16.2198 31.0653 16.5434 30.7981 16.8152 30.4113C17.2713 29.7863 17.4994 28.8317 17.4994 27.5478C17.4994 25.1685 16.8269 23.7747 15.4819 23.3666C15.2034 23.282 14.896 23.2398 14.5598 23.2398C13.8689 23.2398 13.1676 23.4644 12.4558 23.9137C12.2625 24.0357 12.0685 24.1743 11.8736 24.3294C11.4175 24.7011 10.8938 24.7771 10.3025 24.5575C9.9909 24.4384 9.77377 24.2745 9.65109 24.0659C9.54761 23.8899 9.51133 23.6821 9.54225 23.4425L10.4799 15.4346C10.5306 15.063 10.7586 14.8771 11.1641 14.8771H20.9205C21.3428 14.8771 21.554 15.0883 21.554 15.5107V17.8674C21.554 18.2898 21.3428 18.5009 20.9205 18.5009H12.3045L11.6963 22.961C12.3313 22.4547 13.0143 22.0769 13.7453 21.8278C14.0105 21.7374 14.282 21.664 14.5598 21.6075C14.9128 21.5356 15.276 21.4911 15.6494 21.474ZM19.7306 20.3781H20.9205C21.421 20.3781 22.1412 20.2517 22.723 19.6699C23.3048 19.0881 23.4312 18.3679 23.4312 17.8674V15.5107C23.4312 15.0101 23.3048 14.29 22.723 13.7082C22.1412 13.1264 21.421 13 20.9205 13H11.1641C10.6914 13 10.0593 13.1082 9.50321 13.5613C8.92689 14.0309 8.69123 14.6584 8.61996 15.181L8.61755 15.1987L7.67886 23.2156C7.6002 23.8461 7.70394 24.5456 8.13069 25.1715C8.30512 25.4273 8.51011 25.6364 8.72798 25.8073C8.48783 25.9335 8.25691 26.0847 8.03722 26.2617C7.0308 27.0686 6.70215 28.2352 6.70215 29.3217C6.70215 31.249 7.73261 32.7263 9.33324 33.6914C10.8876 34.6286 12.8596 35 15.0667 35C17.5332 35 19.7172 34.3204 21.4445 32.8146L21.4458 32.8135C23.1979 31.2831 24.09 29.2767 24.09 26.9396C24.09 24.7082 23.2383 22.8035 21.4895 21.4534C20.9342 21.019 20.3468 20.6606 19.7306 20.3781ZM12.8261 25.96C12.9443 26.045 13.0585 26.1386 13.1682 26.2407C13.68 26.703 14.0794 27.2562 14.3657 27.8807L14.908 29.064C14.99 29.2235 15.0788 29.3515 15.1715 29.456C15.1753 29.4529 15.1801 29.4488 15.1858 29.4436C15.2054 29.4254 15.2378 29.3912 15.2793 29.3321L15.289 29.3184L15.2989 29.3048C15.411 29.1512 15.6223 28.6724 15.6223 27.5478C15.6223 26.2667 15.3931 25.6373 15.214 25.3748C15.1406 25.2673 15.0783 25.2232 15.022 25.1957C14.957 25.1639 14.8201 25.1169 14.5598 25.1169C14.2282 25.1169 13.735 25.2484 13.0493 25.7929C12.976 25.8522 12.9016 25.9079 12.8261 25.96Z" fill="black"/>
</svg>
